<svg version="1.1" id="Layer_1" xmlns="http://www.w3.org/2000/svg" xmlns:xlink="http://www.w3.org/1999/xlink" x="0px" y="0px"
	 viewBox="0 0 32 32" style="enable-background:new 0 0 32 32;" xml:space="preserve">
<style type="text/css">
	.st0{fill:#FF4415;}
	.st1{fill:none;stroke:#FFFFFF;stroke-width:1.5;}
</style>
<g>
	<g>
		<path class="st0" d="M8,0h16c4.4,0,8,3.6,8,8v16c0,4.4-3.6,8-8,8H8c-4.4,0-8-3.6-8-8V8C0,3.6,3.6,0,8,0z"/>
	</g>
	<path class="st1" d="M15.4,11.2l0.6,0.7l0.6-0.7c0.1-0.1,0.1-0.1,0.1-0.2c0-0.1,0.1-0.1,0.1-0.2c1.5-1.5,3.8-1.5,5.3,0
		c1.5,1.5,1.5,3.8,0,5.3L16,22l-6.2-5.8c-1.5-1.5-1.5-3.8,0-5.3c1.5-1.5,3.8-1.5,5.3,0c0.1,0,0.1,0.1,0.1,0.2
		C15.3,11,15.4,11.1,15.4,11.2z"/>
</g>
</svg>
