<svg version="1.1" id="Layer_1" xmlns="http://www.w3.org/2000/svg" xmlns:xlink="http://www.w3.org/1999/xlink" x="0px" y="0px"
	 viewBox="0 0 32 32" style="enable-background:new 0 0 32 32;" xml:space="preserve">
<style type="text/css">
	.st0{fill:#171717;}
	.st1{fill:#FFFFFF;}
</style>
<g>
	<path class="st0" d="M8,0h16c4.4,0,8,3.6,8,8v16c0,4.4-3.6,8-8,8H8c-4.4,0-8-3.6-8-8V8C0,3.6,3.6,0,8,0z"/>
</g>
<path class="st1" d="M20.5,19.1c-0.6,0-1.1,0.2-1.5,0.6l-5.3-3.1c0-0.2,0.1-0.3,0.1-0.5c0-0.2,0-0.4-0.1-0.5l5.3-3.1
	c0.4,0.4,0.9,0.6,1.5,0.6c1.2,0,2.2-1,2.2-2.2c0-1.2-1-2.2-2.2-2.2s-2.2,1-2.2,2.2c0,0.2,0,0.4,0.1,0.5L13,14.4
	c-0.4-0.4-0.9-0.6-1.5-0.6c-1.2,0-2.2,1-2.2,2.2c0,1.2,1,2.2,2.2,2.2c0.6,0,1.1-0.2,1.5-0.6l5.3,3.1c0,0.2-0.1,0.3-0.1,0.5
	c0,1.2,1,2.2,2.2,2.2s2.2-1,2.2-2.2C22.7,20.1,21.7,19.1,20.5,19.1z"/>
</svg>
