<?xml version="1.0" encoding="utf-8"?>
<!-- Generator: Adobe Illustrator 25.3.0, SVG Export Plug-In . SVG Version: 6.00 Build 0)  -->
<svg version="1.1" id="Layer_1" xmlns="http://www.w3.org/2000/svg" xmlns:xlink="http://www.w3.org/1999/xlink" x="0px" y="0px"
	 viewBox="0 0 97.4 16.2" style="enable-background:new 0 0 97.4 16.2;" xml:space="preserve">
<style type="text/css">
	.st0{fill:#FEB618;}
</style>
<path class="st0" d="M7.7,0.7c0.3-0.9,1.6-0.9,1.9,0l1.3,4c0.1,0.4,0.5,0.7,1,0.7h4.2c1,0,1.4,1.2,0.6,1.8l-3.4,2.5
	c-0.4,0.3-0.5,0.7-0.4,1.1l1.3,4c0.3,0.9-0.8,1.7-1.5,1.1l-3.4-2.5c-0.4-0.3-0.8-0.3-1.2,0l-3.4,2.5c-0.8,0.6-1.8-0.2-1.5-1.1l1.3-4
	c0.1-0.4,0-0.9-0.4-1.1L0.7,7.2c-0.8-0.6-0.4-1.8,0.6-1.8h4.2c0.4,0,0.8-0.3,1-0.7L7.7,0.7z"/>
<path class="st0" d="M27.7,0.7c0.3-0.9,1.6-0.9,1.9,0l1.3,4c0.1,0.4,0.5,0.7,1,0.7h4.2c1,0,1.4,1.2,0.6,1.8l-3.4,2.5
	c-0.4,0.3-0.5,0.7-0.4,1.1l1.3,4c0.3,0.9-0.8,1.7-1.5,1.1l-3.4-2.5c-0.4-0.3-0.8-0.3-1.2,0l-3.4,2.5c-0.8,0.6-1.8-0.2-1.5-1.1l1.3-4
	c0.1-0.4,0-0.9-0.4-1.1l-3.4-2.5c-0.8-0.6-0.4-1.8,0.6-1.8h4.2c0.4,0,0.8-0.3,1-0.7L27.7,0.7z"/>
<path class="st0" d="M47.7,0.7c0.3-0.9,1.6-0.9,1.9,0l1.3,4c0.1,0.4,0.5,0.7,1,0.7h4.2c1,0,1.4,1.2,0.6,1.8l-3.4,2.5
	c-0.4,0.3-0.5,0.7-0.4,1.1l1.3,4c0.3,0.9-0.8,1.7-1.5,1.1l-3.4-2.5c-0.4-0.3-0.8-0.3-1.2,0l-3.4,2.5c-0.8,0.6-1.8-0.2-1.5-1.1l1.3-4
	c0.1-0.4,0-0.9-0.4-1.1l-3.4-2.5c-0.8-0.6-0.4-1.8,0.6-1.8h4.2c0.4,0,0.8-0.3,1-0.7L47.7,0.7z"/>
<path class="st0" d="M67.7,0.7c0.3-0.9,1.6-0.9,1.9,0l1.3,4c0.1,0.4,0.5,0.7,1,0.7h4.2c1,0,1.4,1.2,0.6,1.8l-3.4,2.5
	c-0.4,0.3-0.5,0.7-0.4,1.1l1.3,4c0.3,0.9-0.8,1.7-1.5,1.1l-3.4-2.5c-0.4-0.3-0.8-0.3-1.2,0l-3.4,2.5c-0.8,0.6-1.8-0.2-1.5-1.1l1.3-4
	c0.1-0.4,0-0.9-0.4-1.1l-3.4-2.5c-0.8-0.6-0.4-1.8,0.6-1.8h4.2c0.4,0,0.8-0.3,1-0.7L67.7,0.7z"/>
<path class="st0" d="M87.7,0.7c0.3-0.9,1.6-0.9,1.9,0l1.3,4c0.1,0.4,0.5,0.7,1,0.7h4.2c1,0,1.4,1.2,0.6,1.8l-3.4,2.5
	c-0.4,0.3-0.5,0.7-0.4,1.1l1.3,4c0.3,0.9-0.8,1.7-1.5,1.1l-3.4-2.5c-0.4-0.3-0.8-0.3-1.2,0l-3.4,2.5c-0.8,0.6-1.8-0.2-1.5-1.1l1.3-4
	c0.1-0.4,0-0.9-0.4-1.1l-3.4-2.5c-0.8-0.6-0.4-1.8,0.6-1.8h4.2c0.4,0,0.8-0.3,1-0.7L87.7,0.7z"/>
</svg>
